<mxfile host="app.diagrams.net" modified="2024-06-05T12:23:53.172Z" agent="Mozilla/5.0 (Windows NT 10.0; Win64; x64) AppleWebKit/537.36 (KHTML, like Gecko) Chrome/125.0.0.0 Safari/537.36" etag="-2qtC-lmVCdNf3Q-k2Td" version="24.4.14" type="device">
  <diagram id="ayTRVRE_m9NbCNSnkudH" name="Page-1">
    <mxGraphModel dx="1434" dy="1138" grid="0" gridSize="10" guides="1" tooltips="1" connect="1" arrows="1" fold="1" page="0" pageScale="1" pageWidth="850" pageHeight="1100" background="none" math="0" shadow="0">
      <root>
        <mxCell id="0" />
        <mxCell id="1" parent="0" />
        <mxCell id="2" value="Genres" style="rounded=0;whiteSpace=wrap;html=1;" parent="1" vertex="1">
          <mxGeometry x="170" y="150" width="120" height="60" as="geometry" />
        </mxCell>
        <mxCell id="5" value="Games" style="whiteSpace=wrap;html=1;rounded=0;" parent="1" vertex="1">
          <mxGeometry x="400" y="150" width="120" height="60" as="geometry" />
        </mxCell>
        <mxCell id="7" value="&lt;u&gt;&lt;b&gt;id&lt;/b&gt;&lt;/u&gt;" style="ellipse;whiteSpace=wrap;html=1;" parent="1" vertex="1">
          <mxGeometry x="20" y="60" width="120" height="80" as="geometry" />
        </mxCell>
        <mxCell id="8" value="&lt;b&gt;name&lt;/b&gt;" style="ellipse;whiteSpace=wrap;html=1;" parent="1" vertex="1">
          <mxGeometry x="170" y="30" width="120" height="80" as="geometry" />
        </mxCell>
        <mxCell id="10" value="" style="endArrow=none;html=1;rounded=0;" parent="1" source="2" target="8" edge="1">
          <mxGeometry width="50" height="50" relative="1" as="geometry">
            <mxPoint x="190" y="110" as="sourcePoint" />
            <mxPoint x="240" y="60" as="targetPoint" />
          </mxGeometry>
        </mxCell>
        <mxCell id="11" value="" style="endArrow=none;html=1;rounded=0;" parent="1" source="7" target="2" edge="1">
          <mxGeometry width="50" height="50" relative="1" as="geometry">
            <mxPoint x="190" y="110" as="sourcePoint" />
            <mxPoint x="240" y="60" as="targetPoint" />
          </mxGeometry>
        </mxCell>
        <mxCell id="12" value="&lt;b&gt;name&lt;/b&gt;" style="ellipse;whiteSpace=wrap;html=1;" parent="1" vertex="1">
          <mxGeometry x="320" y="40" width="120" height="80" as="geometry" />
        </mxCell>
        <mxCell id="13" value="&lt;b&gt;&lt;u&gt;id&lt;/u&gt;&lt;/b&gt;" style="ellipse;whiteSpace=wrap;html=1;" parent="1" vertex="1">
          <mxGeometry x="440" width="120" height="80" as="geometry" />
        </mxCell>
        <mxCell id="14" value="developer" style="ellipse;whiteSpace=wrap;html=1;" parent="1" vertex="1">
          <mxGeometry x="570" y="30" width="120" height="80" as="geometry" />
        </mxCell>
        <mxCell id="15" value="" style="endArrow=none;html=1;rounded=0;" parent="1" source="14" target="5" edge="1">
          <mxGeometry width="50" height="50" relative="1" as="geometry">
            <mxPoint x="348" y="-26" as="sourcePoint" />
            <mxPoint x="440" y="180" as="targetPoint" />
          </mxGeometry>
        </mxCell>
        <mxCell id="16" value="" style="endArrow=none;html=1;rounded=0;" parent="1" source="12" target="5" edge="1">
          <mxGeometry width="50" height="50" relative="1" as="geometry">
            <mxPoint x="358" y="-16" as="sourcePoint" />
            <mxPoint x="410" y="10" as="targetPoint" />
          </mxGeometry>
        </mxCell>
        <mxCell id="17" value="" style="endArrow=none;html=1;rounded=0;" parent="1" source="13" target="5" edge="1">
          <mxGeometry width="50" height="50" relative="1" as="geometry">
            <mxPoint x="368" y="-6" as="sourcePoint" />
            <mxPoint x="420" y="20" as="targetPoint" />
          </mxGeometry>
        </mxCell>
        <mxCell id="23" value="games_genres" style="rhombus;whiteSpace=wrap;html=1;rounded=0;" parent="1" vertex="1">
          <mxGeometry x="300" y="260" width="90" height="90" as="geometry" />
        </mxCell>
        <mxCell id="29" value="Sessions" style="rounded=0;whiteSpace=wrap;html=1;fillStyle=auto;strokeColor=#000000;gradientColor=none;" parent="1" vertex="1">
          <mxGeometry x="780" y="150" width="120" height="60" as="geometry" />
        </mxCell>
        <mxCell id="31" value="date" style="ellipse;whiteSpace=wrap;html=1;" parent="1" vertex="1">
          <mxGeometry x="990" y="30" width="120" height="80" as="geometry" />
        </mxCell>
        <mxCell id="32" value="capacity" style="ellipse;whiteSpace=wrap;html=1;" parent="1" vertex="1">
          <mxGeometry x="855" y="-5" width="120" height="80" as="geometry" />
        </mxCell>
        <mxCell id="33" value="&lt;b&gt;&lt;u&gt;id&lt;/u&gt;&lt;/b&gt;" style="ellipse;whiteSpace=wrap;html=1;" parent="1" vertex="1">
          <mxGeometry x="720" y="10" width="120" height="80" as="geometry" />
        </mxCell>
        <mxCell id="34" value="" style="endArrow=none;html=1;rounded=0;" parent="1" source="31" target="29" edge="1">
          <mxGeometry width="50" height="50" relative="1" as="geometry">
            <mxPoint x="548.444188328471" y="94.0211094583675" as="sourcePoint" />
            <mxPoint x="487.6923076923076" y="160" as="targetPoint" />
          </mxGeometry>
        </mxCell>
        <mxCell id="35" value="" style="endArrow=none;html=1;rounded=0;" parent="1" source="32" target="29" edge="1">
          <mxGeometry width="50" height="50" relative="1" as="geometry">
            <mxPoint x="558.444188328471" y="104.0211094583675" as="sourcePoint" />
            <mxPoint x="497.6923076923076" y="170" as="targetPoint" />
          </mxGeometry>
        </mxCell>
        <mxCell id="36" value="" style="endArrow=none;html=1;rounded=0;" parent="1" source="33" target="29" edge="1">
          <mxGeometry width="50" height="50" relative="1" as="geometry">
            <mxPoint x="568.444188328471" y="114.0211094583675" as="sourcePoint" />
            <mxPoint x="507.6923076923076" y="180" as="targetPoint" />
          </mxGeometry>
        </mxCell>
        <mxCell id="37" value="" style="rhombus;whiteSpace=wrap;html=1;rounded=0;" parent="1" vertex="1">
          <mxGeometry x="620" y="155" width="50" height="50" as="geometry" />
        </mxCell>
        <mxCell id="42" value="N:M" style="text;html=1;strokeColor=none;fillColor=none;align=center;verticalAlign=middle;whiteSpace=wrap;rounded=0;fillStyle=auto;" parent="1" vertex="1">
          <mxGeometry x="315" y="230" width="60" height="30" as="geometry" />
        </mxCell>
        <mxCell id="43" value="1:N" style="text;html=1;strokeColor=none;fillColor=none;align=center;verticalAlign=middle;whiteSpace=wrap;rounded=0;fillStyle=auto;" parent="1" vertex="1">
          <mxGeometry x="615" y="125" width="60" height="30" as="geometry" />
        </mxCell>
        <mxCell id="44" value="Players" style="whiteSpace=wrap;html=1;rounded=0;" parent="1" vertex="1">
          <mxGeometry x="780.5" y="575.5" width="120" height="60" as="geometry" />
        </mxCell>
        <mxCell id="45" value="&lt;b&gt;&lt;u&gt;id&lt;/u&gt;&lt;/b&gt;" style="ellipse;whiteSpace=wrap;html=1;" parent="1" vertex="1">
          <mxGeometry x="952" y="534" width="120" height="80" as="geometry" />
        </mxCell>
        <mxCell id="46" value="" style="endArrow=none;html=1;rounded=0;" parent="1" source="44" target="50" edge="1">
          <mxGeometry width="50" height="50" relative="1" as="geometry">
            <mxPoint x="985.8868489751965" y="417.1698966272579" as="sourcePoint" />
            <mxPoint x="903.5" y="434" as="targetPoint" />
          </mxGeometry>
        </mxCell>
        <mxCell id="47" value="" style="endArrow=none;html=1;rounded=0;" parent="1" source="44" target="49" edge="1">
          <mxGeometry width="50" height="50" relative="1" as="geometry">
            <mxPoint x="995.8868489751965" y="427.1698966272579" as="sourcePoint" />
            <mxPoint x="913.5" y="444" as="targetPoint" />
          </mxGeometry>
        </mxCell>
        <mxCell id="48" value="" style="endArrow=none;html=1;rounded=0;" parent="1" source="44" target="45" edge="1">
          <mxGeometry width="50" height="50" relative="1" as="geometry">
            <mxPoint x="1005.8868489751965" y="437.1698966272579" as="sourcePoint" />
            <mxPoint x="923.5" y="454" as="targetPoint" />
          </mxGeometry>
        </mxCell>
        <mxCell id="49" value="&lt;b&gt;name&lt;/b&gt;" style="ellipse;whiteSpace=wrap;html=1;" parent="1" vertex="1">
          <mxGeometry x="968" y="628" width="120" height="80" as="geometry" />
        </mxCell>
        <mxCell id="50" value="&lt;b&gt;email&lt;/b&gt;" style="ellipse;whiteSpace=wrap;html=1;" parent="1" vertex="1">
          <mxGeometry x="962" y="723" width="120" height="80" as="geometry" />
        </mxCell>
        <mxCell id="53" value="players_sesions" style="rhombus;whiteSpace=wrap;html=1;rounded=0;" parent="1" vertex="1">
          <mxGeometry x="666" y="305.5" width="96" height="97" as="geometry" />
        </mxCell>
        <mxCell id="54" value="N:M" style="text;html=1;strokeColor=none;fillColor=none;align=center;verticalAlign=middle;whiteSpace=wrap;rounded=0;fillStyle=auto;" parent="1" vertex="1">
          <mxGeometry x="752" y="339" width="60" height="30" as="geometry" />
        </mxCell>
        <mxCell id="58" value="" style="endArrow=none;html=1;rounded=0;exitX=0.5;exitY=0;exitDx=0;exitDy=0;" parent="1" source="53" target="29" edge="1">
          <mxGeometry width="50" height="50" relative="1" as="geometry">
            <mxPoint x="690" y="300" as="sourcePoint" />
            <mxPoint x="740" y="250" as="targetPoint" />
          </mxGeometry>
        </mxCell>
        <mxCell id="59" value="" style="endArrow=none;html=1;rounded=0;exitX=0.5;exitY=0;exitDx=0;exitDy=0;entryX=0.5;entryY=1;entryDx=0;entryDy=0;" parent="1" source="44" target="53" edge="1">
          <mxGeometry width="50" height="50" relative="1" as="geometry">
            <mxPoint x="793" y="423" as="sourcePoint" />
            <mxPoint x="833" y="383" as="targetPoint" />
          </mxGeometry>
        </mxCell>
        <mxCell id="60" value="" style="endArrow=none;html=1;rounded=0;" parent="1" source="5" target="37" edge="1">
          <mxGeometry width="50" height="50" relative="1" as="geometry">
            <mxPoint x="610" y="310" as="sourcePoint" />
            <mxPoint x="660" y="260" as="targetPoint" />
          </mxGeometry>
        </mxCell>
        <mxCell id="61" value="" style="endArrow=none;html=1;rounded=0;" parent="1" source="37" target="29" edge="1">
          <mxGeometry width="50" height="50" relative="1" as="geometry">
            <mxPoint x="610" y="310" as="sourcePoint" />
            <mxPoint x="660" y="260" as="targetPoint" />
          </mxGeometry>
        </mxCell>
        <mxCell id="63" value="" style="endArrow=none;html=1;rounded=0;" parent="1" source="23" target="5" edge="1">
          <mxGeometry width="50" height="50" relative="1" as="geometry">
            <mxPoint x="610" y="310" as="sourcePoint" />
            <mxPoint x="660" y="260" as="targetPoint" />
            <Array as="points">
              <mxPoint x="460" y="305" />
            </Array>
          </mxGeometry>
        </mxCell>
        <mxCell id="64" value="" style="endArrow=none;html=1;rounded=0;" parent="1" source="23" target="2" edge="1">
          <mxGeometry width="50" height="50" relative="1" as="geometry">
            <mxPoint x="610" y="310" as="sourcePoint" />
            <mxPoint x="660" y="260" as="targetPoint" />
            <Array as="points">
              <mxPoint x="230" y="305" />
            </Array>
          </mxGeometry>
        </mxCell>
        <mxCell id="65" value="" style="endArrow=none;html=1;rounded=0;" parent="1" source="66" target="23" edge="1">
          <mxGeometry width="50" height="50" relative="1" as="geometry">
            <mxPoint x="610" y="310" as="sourcePoint" />
            <mxPoint x="660" y="260" as="targetPoint" />
          </mxGeometry>
        </mxCell>
        <mxCell id="66" value="game_id" style="ellipse;whiteSpace=wrap;html=1;" parent="1" vertex="1">
          <mxGeometry x="241" y="367" width="120" height="80" as="geometry" />
        </mxCell>
        <mxCell id="67" value="genre_id" style="ellipse;whiteSpace=wrap;html=1;" parent="1" vertex="1">
          <mxGeometry x="135" y="313" width="120" height="80" as="geometry" />
        </mxCell>
        <mxCell id="68" value="" style="endArrow=none;html=1;rounded=0;" parent="1" source="67" target="23" edge="1">
          <mxGeometry width="50" height="50" relative="1" as="geometry">
            <mxPoint x="440.29974206275915" y="415.24437900961175" as="sourcePoint" />
            <mxPoint x="375.70000000000005" y="339.29999999999995" as="targetPoint" />
          </mxGeometry>
        </mxCell>
        <mxCell id="69" value="Tokens" style="rounded=0;whiteSpace=wrap;html=1;" parent="1" vertex="1">
          <mxGeometry x="499" y="574" width="120" height="60" as="geometry" />
        </mxCell>
        <mxCell id="70" value="&lt;b&gt;&lt;u&gt;token_validation&lt;/u&gt;&lt;/b&gt;" style="ellipse;whiteSpace=wrap;html=1;" parent="1" vertex="1">
          <mxGeometry x="359" y="507" width="120" height="80" as="geometry" />
        </mxCell>
        <mxCell id="72" value="&lt;b&gt;last_used_at&lt;/b&gt;" style="ellipse;whiteSpace=wrap;html=1;" parent="1" vertex="1">
          <mxGeometry x="361" y="625" width="120" height="80" as="geometry" />
        </mxCell>
        <mxCell id="73" value="" style="endArrow=none;html=1;rounded=0;" parent="1" source="70" target="69" edge="1">
          <mxGeometry width="50" height="50" relative="1" as="geometry">
            <mxPoint x="408" y="533" as="sourcePoint" />
            <mxPoint x="496.17073170731715" y="628" as="targetPoint" />
          </mxGeometry>
        </mxCell>
        <mxCell id="75" value="" style="endArrow=none;html=1;rounded=0;" parent="1" source="72" target="69" edge="1">
          <mxGeometry width="50" height="50" relative="1" as="geometry">
            <mxPoint x="408" y="533" as="sourcePoint" />
            <mxPoint x="483" y="661.6809815950921" as="targetPoint" />
          </mxGeometry>
        </mxCell>
        <mxCell id="77" value="" style="endArrow=none;html=1;rounded=0;" parent="1" source="89" target="44" edge="1">
          <mxGeometry width="50" height="50" relative="1" as="geometry">
            <mxPoint x="597" y="605.5" as="sourcePoint" />
            <mxPoint x="523.5" y="446" as="targetPoint" />
          </mxGeometry>
        </mxCell>
        <mxCell id="79" value="" style="endArrow=none;html=1;rounded=0;" parent="1" source="69" target="89" edge="1">
          <mxGeometry width="50" height="50" relative="1" as="geometry">
            <mxPoint x="438.5" y="631" as="sourcePoint" />
            <mxPoint x="573.5" y="625.5" as="targetPoint" />
          </mxGeometry>
        </mxCell>
        <mxCell id="80" value="1:N" style="text;html=1;align=center;verticalAlign=middle;resizable=0;points=[];autosize=1;strokeColor=none;fillColor=none;" parent="1" vertex="1">
          <mxGeometry x="648.5" y="549.5" width="37" height="26" as="geometry" />
        </mxCell>
        <mxCell id="81" value="state" style="ellipse;whiteSpace=wrap;html=1;" parent="1" vertex="1">
          <mxGeometry x="1001" y="135" width="120" height="80" as="geometry" />
        </mxCell>
        <mxCell id="83" value="" style="endArrow=none;html=1;rounded=0;" parent="1" source="81" target="29" edge="1">
          <mxGeometry width="50" height="50" relative="1" as="geometry">
            <mxPoint x="992.530422886731" y="161.49391542265369" as="sourcePoint" />
            <mxPoint x="910" y="178" as="targetPoint" />
          </mxGeometry>
        </mxCell>
        <mxCell id="84" value="&lt;b&gt;&lt;u&gt;session_id&lt;/u&gt;&lt;/b&gt;" style="ellipse;whiteSpace=wrap;html=1;" parent="1" vertex="1">
          <mxGeometry x="514" y="263.5" width="120" height="80" as="geometry" />
        </mxCell>
        <mxCell id="85" value="&lt;b&gt;&lt;u&gt;player_id&lt;/u&gt;&lt;/b&gt;" style="ellipse;whiteSpace=wrap;html=1;" parent="1" vertex="1">
          <mxGeometry x="512" y="362.5" width="120" height="80" as="geometry" />
        </mxCell>
        <mxCell id="87" value="" style="endArrow=none;html=1;rounded=0;" parent="1" source="53" target="85" edge="1">
          <mxGeometry width="50" height="50" relative="1" as="geometry">
            <mxPoint x="846.5224369299785" y="258.7376729015318" as="sourcePoint" />
            <mxPoint x="784" y="239.14406779661022" as="targetPoint" />
          </mxGeometry>
        </mxCell>
        <mxCell id="88" value="" style="endArrow=none;html=1;rounded=0;" parent="1" source="84" target="53" edge="1">
          <mxGeometry width="50" height="50" relative="1" as="geometry">
            <mxPoint x="856.5224369299785" y="268.7376729015318" as="sourcePoint" />
            <mxPoint x="794" y="249.14406779661022" as="targetPoint" />
          </mxGeometry>
        </mxCell>
        <mxCell id="89" value="" style="rhombus;whiteSpace=wrap;html=1;rounded=0;" parent="1" vertex="1">
          <mxGeometry x="642" y="580.5" width="50" height="50" as="geometry" />
        </mxCell>
        <mxCell id="90" value="players_invites" style="rhombus;whiteSpace=wrap;html=1;rounded=0;" parent="1" vertex="1">
          <mxGeometry x="894" y="305.5" width="96" height="97" as="geometry" />
        </mxCell>
        <mxCell id="91" value="N:M:N" style="text;html=1;strokeColor=none;fillColor=none;align=center;verticalAlign=middle;whiteSpace=wrap;rounded=0;fillStyle=auto;" parent="1" vertex="1">
          <mxGeometry x="836" y="338" width="60" height="30" as="geometry" />
        </mxCell>
        <mxCell id="93" value="&lt;b&gt;&lt;u&gt;session_id&lt;/u&gt;&lt;/b&gt;" style="ellipse;whiteSpace=wrap;html=1;" parent="1" vertex="1">
          <mxGeometry x="1027" y="233" width="120" height="80" as="geometry" />
        </mxCell>
        <mxCell id="94" value="&lt;b&gt;&lt;u&gt;from_player_id&lt;/u&gt;&lt;/b&gt;" style="ellipse;whiteSpace=wrap;html=1;" parent="1" vertex="1">
          <mxGeometry x="1132" y="301" width="120" height="80" as="geometry" />
        </mxCell>
        <mxCell id="95" value="" style="endArrow=none;html=1;rounded=0;" parent="1" source="90" target="94" edge="1">
          <mxGeometry width="50" height="50" relative="1" as="geometry">
            <mxPoint x="1058.5224369299785" y="316.2376729015318" as="sourcePoint" />
            <mxPoint x="996" y="296.6440677966102" as="targetPoint" />
          </mxGeometry>
        </mxCell>
        <mxCell id="96" value="" style="endArrow=none;html=1;rounded=0;" parent="1" source="93" target="90" edge="1">
          <mxGeometry width="50" height="50" relative="1" as="geometry">
            <mxPoint x="1068.5224369299785" y="326.2376729015318" as="sourcePoint" />
            <mxPoint x="1006" y="306.6440677966102" as="targetPoint" />
          </mxGeometry>
        </mxCell>
        <mxCell id="98" value="" style="endArrow=none;html=1;rounded=0;exitX=0.5;exitY=0;exitDx=0;exitDy=0;" parent="1" source="90" target="29" edge="1">
          <mxGeometry width="50" height="50" relative="1" as="geometry">
            <mxPoint x="714" y="285" as="sourcePoint" />
            <mxPoint x="807.0526315789473" y="220" as="targetPoint" />
          </mxGeometry>
        </mxCell>
        <mxCell id="99" value="" style="endArrow=none;html=1;rounded=0;exitX=0;exitY=0.5;exitDx=0;exitDy=0;" parent="1" source="90" target="44" edge="1">
          <mxGeometry width="50" height="50" relative="1" as="geometry">
            <mxPoint x="952" y="322.5" as="sourcePoint" />
            <mxPoint x="873.0943396226414" y="220" as="targetPoint" />
          </mxGeometry>
        </mxCell>
        <mxCell id="100" value="" style="endArrow=none;html=1;rounded=0;exitX=0.5;exitY=1;exitDx=0;exitDy=0;" parent="1" source="90" target="44" edge="1">
          <mxGeometry width="50" height="50" relative="1" as="geometry">
            <mxPoint x="904" y="371" as="sourcePoint" />
            <mxPoint x="851.0028653295128" y="515.5" as="targetPoint" />
          </mxGeometry>
        </mxCell>
        <mxCell id="101" value="&lt;b&gt;&lt;u&gt;from_player_id&lt;/u&gt;&lt;/b&gt;" style="ellipse;whiteSpace=wrap;html=1;" parent="1" vertex="1">
          <mxGeometry x="1130" y="389" width="120" height="80" as="geometry" />
        </mxCell>
        <mxCell id="102" value="" style="endArrow=none;html=1;rounded=0;" parent="1" source="90" target="101" edge="1">
          <mxGeometry width="50" height="50" relative="1" as="geometry">
            <mxPoint x="996.4784103935804" y="367.4417271685136" as="sourcePoint" />
            <mxPoint x="1142.4273896907907" y="355.7658088247367" as="targetPoint" />
          </mxGeometry>
        </mxCell>
        <mxCell id="103" value="expiration" style="ellipse;whiteSpace=wrap;html=1;" parent="1" vertex="1">
          <mxGeometry x="1012" y="439" width="120" height="80" as="geometry" />
        </mxCell>
        <mxCell id="104" value="" style="endArrow=none;html=1;rounded=0;" parent="1" source="90" target="103" edge="1">
          <mxGeometry width="50" height="50" relative="1" as="geometry">
            <mxPoint x="989.7546429505624" y="381.35207951870257" as="sourcePoint" />
            <mxPoint x="1144.5100509139406" y="423.7850139602742" as="targetPoint" />
          </mxGeometry>
        </mxCell>
        <mxCell id="GGd68-BrvpQgbRnR3oPS-104" value="&lt;b&gt;password&lt;/b&gt;" style="ellipse;whiteSpace=wrap;html=1;" vertex="1" parent="1">
          <mxGeometry x="609" y="661" width="120" height="80" as="geometry" />
        </mxCell>
        <mxCell id="GGd68-BrvpQgbRnR3oPS-105" value="image" style="ellipse;whiteSpace=wrap;html=1;" vertex="1" parent="1">
          <mxGeometry x="832" y="698" width="120" height="80" as="geometry" />
        </mxCell>
        <mxCell id="GGd68-BrvpQgbRnR3oPS-106" value="" style="endArrow=none;html=1;rounded=0;" edge="1" parent="1" source="44" target="GGd68-BrvpQgbRnR3oPS-104">
          <mxGeometry width="50" height="50" relative="1" as="geometry">
            <mxPoint x="855.5" y="646" as="sourcePoint" />
            <mxPoint x="877.5" y="768" as="targetPoint" />
          </mxGeometry>
        </mxCell>
        <mxCell id="GGd68-BrvpQgbRnR3oPS-107" value="" style="endArrow=none;html=1;rounded=0;" edge="1" parent="1" source="44" target="GGd68-BrvpQgbRnR3oPS-105">
          <mxGeometry width="50" height="50" relative="1" as="geometry">
            <mxPoint x="818.5" y="646" as="sourcePoint" />
            <mxPoint x="781.5" y="680" as="targetPoint" />
          </mxGeometry>
        </mxCell>
        <mxCell id="GGd68-BrvpQgbRnR3oPS-108" value="details" style="ellipse;whiteSpace=wrap;html=1;" vertex="1" parent="1">
          <mxGeometry x="705" y="728" width="120" height="80" as="geometry" />
        </mxCell>
        <mxCell id="GGd68-BrvpQgbRnR3oPS-109" value="" style="endArrow=none;html=1;rounded=0;" edge="1" parent="1" source="44" target="GGd68-BrvpQgbRnR3oPS-108">
          <mxGeometry width="50" height="50" relative="1" as="geometry">
            <mxPoint x="862" y="646" as="sourcePoint" />
            <mxPoint x="887" y="709" as="targetPoint" />
          </mxGeometry>
        </mxCell>
      </root>
    </mxGraphModel>
  </diagram>
</mxfile>
